<?xml version="1.0" encoding="utf-8"?>
<!-- Generator: Adobe Illustrator 28.0.0, SVG Export Plug-In . SVG Version: 6.00 Build 0)  -->
<svg version="1.1" id="Слой_1" xmlns="http://www.w3.org/2000/svg" xmlns:xlink="http://www.w3.org/1999/xlink" x="0px" y="0px"
	 viewBox="0 0 1920 1080" style="enable-background:new 0 0 1920 1080;" xml:space="preserve">
<style type="text/css">
	.st0{fill:url(#SVGID_1_);}
	.st1{clip-path:url(#SVGID_00000178197569300335101030000004765928918931915699_);}
	.st2{opacity:0.72;}
	.st3{fill:#1A1A1A;}
	.st4{fill:url(#SVGID_00000010274413192987245510000013240873221380099249_);}
	.st5{clip-path:url(#SVGID_00000041988301485487266330000006974526733722986120_);}
	.st6{fill:url(#SVGID_00000013892529521977842640000017635076894829406377_);}
	.st7{clip-path:url(#SVGID_00000067220835636800477560000014337112869674198427_);}
	.st8{fill:url(#SVGID_00000007420876671837894070000000902374138538120065_);}
	.st9{clip-path:url(#SVGID_00000134972163998424580660000008349198212089414303_);}
	.st10{fill:url(#SVGID_00000033345878299386461040000010743469484263835805_);}
	.st11{clip-path:url(#SVGID_00000175285882474179523570000006542309587779849859_);}
	.st12{fill:url(#SVGID_00000112612547494706539220000000832672294158725810_);}
	.st13{clip-path:url(#SVGID_00000095298167978963779170000018441616637858187173_);}
	.st14{fill:url(#SVGID_00000032643882078831593330000004251629365958183835_);}
	.st15{clip-path:url(#SVGID_00000107563407413352961030000012242624976383805833_);}
	.st16{fill:url(#SVGID_00000025415050260988306850000003229168655968083844_);}
</style>
<g id="BACKGROUND">
	
		<radialGradient id="SVGID_1_" cx="928.7562" cy="594.7175" r="728.35" fx="1512.8528" fy="1029.8322" gradientTransform="matrix(1.8286 0 0 -1.8902 -873.9298 1408.0898)" gradientUnits="userSpaceOnUse">
		<stop  offset="0" style="stop-color:#1A1A1A"/>
		<stop  offset="0.4569" style="stop-color:#1C1C1C"/>
		<stop  offset="0.6594" style="stop-color:#232323"/>
		<stop  offset="0.8116" style="stop-color:#303030"/>
		<stop  offset="0.938" style="stop-color:#424242"/>
		<stop  offset="0.9963" style="stop-color:#4D4D4D"/>
	</radialGradient>
	<rect y="-8.8" class="st0" width="1920" height="1088.8"/>
</g>
<g id="OBJECTS">
	<g>
		<g>
			<defs>
				<rect id="SVGID_00000096020312484850347130000001579102286876613026_" y="-102.2" width="1926.5" height="1284.3"/>
			</defs>
			<clipPath id="SVGID_00000111160273657907315070000012959719581869034372_">
				<use xlink:href="#SVGID_00000096020312484850347130000001579102286876613026_"  style="overflow:visible;"/>
			</clipPath>
			<g style="clip-path:url(#SVGID_00000111160273657907315070000012959719581869034372_);">
				<g class="st2">
					
						<image style="overflow:visible;enable-background:new    ;" width="1604" height="1606" xlink:href="B39CA71C.png"  transform="matrix(0.6169 0 0 0.6169 561.1949 146.2802)">
					</image>
				</g>
				<path class="st3" d="M1034.6,1024.8L632.2,622.4c-6.9-6.9-6.9-18.1,0-25l402.5-402.5c6.9-6.9,18.1-6.9,25,0L1462,597.4
					c6.9,6.9,6.9,18.1,0,25l-402.5,402.5C1052.7,1031.7,1041.5,1031.7,1034.6,1024.8z"/>
				
					<linearGradient id="SVGID_00000147201343705732296820000011287340944566577556_" gradientUnits="userSpaceOnUse" x1="714.361" y1="652.319" x2="1702.7635" y2="-384.3771" gradientTransform="matrix(1 0 0 -1 0 921.1467)">
					<stop  offset="0" style="stop-color:#000000"/>
					<stop  offset="1" style="stop-color:#333333"/>
				</linearGradient>
				<path style="fill:url(#SVGID_00000147201343705732296820000011287340944566577556_);" d="M1038.2,1036.4L630.8,629
					c-5.5-5.5-5.5-14.5,0-20l407.4-407.4c5.5-5.5,14.5-5.5,20,0L1465.6,609c5.5,5.5,5.5,14.5,0,20l-407.3,407.4
					C1052.7,1041.9,1043.7,1041.9,1038.2,1036.4z"/>
			</g>
		</g>
		<g>
			<defs>
				<rect id="SVGID_00000148624035750197123190000006652645145200701589_" y="-102.2" width="1926.5" height="1284.3"/>
			</defs>
			<clipPath id="SVGID_00000168799905664026094060000004932410113763890318_">
				<use xlink:href="#SVGID_00000148624035750197123190000006652645145200701589_"  style="overflow:visible;"/>
			</clipPath>
			<g style="clip-path:url(#SVGID_00000168799905664026094060000004932410113763890318_);">
				<g class="st2">
					
						<image style="overflow:visible;enable-background:new    ;" width="2876" height="2875" xlink:href="B39CA71D.png"  transform="matrix(0.6169 0 0 0.6169 964.0585 -226.9931)">
					</image>
				</g>
				<path class="st3" d="M1765.7,1391.2L945.2,570.7c-14.1-14.1-14.1-36.8,0-50.9l820.5-820.5c14.1-14.1,36.8-14.1,50.9,0
					L2637,519.8c14.1,14.1,14.1,36.8,0,50.9l-820.5,820.5C1802.5,1405.2,1779.7,1405.2,1765.7,1391.2z"/>
				
					<linearGradient id="SVGID_00000127033362413212757120000009011923347085661116_" gradientUnits="userSpaceOnUse" x1="1205.2396" y1="927.6405" x2="2238.3049" y2="-36.5549" gradientTransform="matrix(1 0 0 -1 0 921.1467)">
					<stop  offset="0" style="stop-color:#000000"/>
					<stop  offset="1" style="stop-color:#333333"/>
				</linearGradient>
				<path style="fill:url(#SVGID_00000127033362413212757120000009011923347085661116_);" d="M1772.7,1392.8L952.2,572.3
					c-14.1-14.1-14.1-36.8,0-50.9L1772.7-299c14.1-14.1,36.8-14.1,50.9,0l820.5,820.5c14.1,14.1,14.1,36.8,0,50.9l-820.5,820.5
					C1809.5,1406.9,1786.8,1406.9,1772.7,1392.8z"/>
			</g>
		</g>
		<g>
			<defs>
				<rect id="SVGID_00000052795607735402757580000010587188974573578368_" y="-102.2" width="1926.5" height="1284.3"/>
			</defs>
			<clipPath id="SVGID_00000013875769081852967200000009248223567024655240_">
				<use xlink:href="#SVGID_00000052795607735402757580000010587188974573578368_"  style="overflow:visible;"/>
			</clipPath>
			<g style="clip-path:url(#SVGID_00000013875769081852967200000009248223567024655240_);">
				<g class="st2">
					
						<image style="overflow:visible;enable-background:new    ;" width="2902" height="2902" xlink:href="B39CA712.png"  transform="matrix(0.6171 0 0 0.6171 1128.04 -194.012)">
					</image>
				</g>
				<path class="st3" d="M2030.9,1522.4L1210.4,702c-14.1-14.1-14.1-36.8,0-50.9l820.5-820.5c14.1-14.1,36.8-14.1,50.9,0
					l820.5,820.5c14.1,14.1,14.1,36.8,0,50.9l-820.4,820.5C2067.7,1536.5,2045,1536.5,2030.9,1522.4z"/>
				
					<linearGradient id="SVGID_00000145779324969640708630000014793150363154853253_" gradientUnits="userSpaceOnUse" x1="1468.5626" y1="798.1694" x2="2501.6284" y2="-166.026" gradientTransform="matrix(1 0 0 -1 0 921.1467)">
					<stop  offset="0" style="stop-color:#000000"/>
					<stop  offset="1" style="stop-color:#333333"/>
				</linearGradient>
				<path style="fill:url(#SVGID_00000145779324969640708630000014793150363154853253_);" d="M2038,1524.1l-820.5-820.5
					c-14.1-14.1-14.1-36.8,0-50.9L2038-167.8c14.1-14.1,36.8-14.1,50.9,0l820.5,820.5c14.1,14.1,14.1,36.8,0,50.9l-820.5,820.5
					C2074.8,1538.1,2052,1538.1,2038,1524.1z"/>
			</g>
		</g>
		<g>
			<defs>
				<rect id="SVGID_00000020396873876646064620000014250119826633272761_" y="-102.2" width="1926.5" height="1284.3"/>
			</defs>
			<clipPath id="SVGID_00000108303101860199633740000001638010300540706436_">
				<use xlink:href="#SVGID_00000020396873876646064620000014250119826633272761_"  style="overflow:visible;"/>
			</clipPath>
			<g style="clip-path:url(#SVGID_00000108303101860199633740000001638010300540706436_);">
				<g class="st2">
					
						<image style="overflow:visible;enable-background:new    ;" width="2873" height="2877" xlink:href="B39CA713.png"  transform="matrix(0.6167 0 0 0.6167 180.832 818.8506)">
					</image>
				</g>
				<path class="st3" d="M935.2,2465.3l-820.5-820.4c-14.1-14.1-14.1-36.8,0-50.9l820.5-820.5c14.1-14.1,36.8-14.1,50.9,0
					l820.5,820.5c14.1,14.1,14.1,36.8,0,50.9l-820.4,820.5C972,2479.4,949.3,2479.4,935.2,2465.3z"/>
				
					<linearGradient id="SVGID_00000087372887562726815690000012561938729713482917_" gradientUnits="userSpaceOnUse" x1="418.5913" y1="411.715" x2="1223.3678" y2="-1250.7043" gradientTransform="matrix(1 0 0 -1 0 921.1467)">
					<stop  offset="0" style="stop-color:#000000"/>
					<stop  offset="1" style="stop-color:#333333"/>
				</linearGradient>
				<path style="fill:url(#SVGID_00000087372887562726815690000012561938729713482917_);" d="M931.7,2467.8l-820.5-820.5
					c-14.1-14.1-14.1-36.8,0-50.9L931.7,776c14.1-14.1,36.8-14.1,50.9,0l820.5,820.5c14.1,14.1,14.1,36.8,0,50.9l-820.5,820.5
					C968.5,2481.9,945.7,2481.9,931.7,2467.8z"/>
			</g>
		</g>
		<g>
			<defs>
				<rect id="SVGID_00000170988025735611371070000013098687620568764553_" y="-102.2" width="1926.5" height="1284.3"/>
			</defs>
			<clipPath id="SVGID_00000116234214494564514420000006656292137306838436_">
				<use xlink:href="#SVGID_00000170988025735611371070000013098687620568764553_"  style="overflow:visible;"/>
			</clipPath>
			<g style="clip-path:url(#SVGID_00000116234214494564514420000006656292137306838436_);">
				<g class="st2">
					
						<image style="overflow:visible;enable-background:new    ;" width="2905" height="2905" xlink:href="B39CA714.png"  transform="matrix(0.6169 0 0 0.6169 787.1313 -1161.8722)">
					</image>
				</g>
				<path class="st3" d="M1637.7,529.5L817.2-291c-14.1-14.1-14.1-36.8,0-50.9l820.5-820.5c14.1-14.1,36.8-14.1,50.9,0L2509-341.9
					c14.1,14.1,14.1,36.8,0,50.9l-820.4,820.5C1674.5,543.5,1651.7,543.5,1637.7,529.5z"/>
				
					<linearGradient id="SVGID_00000101078990761371486620000004250606819829778057_" gradientUnits="userSpaceOnUse" x1="1047.15" y1="740.4825" x2="2431.8455" y2="1876.3916" gradientTransform="matrix(1 0 0 -1 0 921.1467)">
					<stop  offset="0" style="stop-color:#000000"/>
					<stop  offset="1" style="stop-color:#333333"/>
				</linearGradient>
				<path style="fill:url(#SVGID_00000101078990761371486620000004250606819829778057_);" d="M1645.3,524.2L814.7-306.3
					c-11.3-11.3-11.3-29.6,0-40.8l830.5-830.5c11.3-11.3,29.6-11.3,40.8,0l830.5,830.5c11.3,11.3,11.3,29.6,0,40.8l-830.5,830.5
					C1674.8,535.5,1656.5,535.5,1645.3,524.2z"/>
			</g>
		</g>
		<g>
			<defs>
				<rect id="SVGID_00000048480177492953826950000009195974715311160999_" y="-102.2" width="1926.5" height="1284.3"/>
			</defs>
			<clipPath id="SVGID_00000057864440705818744220000010986289833490908546_">
				<use xlink:href="#SVGID_00000048480177492953826950000009195974715311160999_"  style="overflow:visible;"/>
			</clipPath>
			<g style="clip-path:url(#SVGID_00000057864440705818744220000010986289833490908546_);">
				<g class="st2">
					
						<image style="overflow:visible;enable-background:new    ;" width="2907" height="2906" xlink:href="B39CA717.png"  transform="matrix(0.6167 0 0 0.6167 -889.671 -617.2195)">
					</image>
				</g>
				<path class="st3" d="M826.9,262.7L6.4,1083.2c-14.1,14.1-36.8,14.1-50.9,0L-865,262.7c-14.1-14.1-14.1-36.8,0-50.9l820.5-820.5
					c14.1-14.1,36.8-14.1,50.9,0l820.5,820.5C840.9,225.9,840.9,248.7,826.9,262.7z"/>
				
					<linearGradient id="SVGID_00000055702776050695735760000004289348834612165020_" gradientUnits="userSpaceOnUse" x1="700.0101" y1="924.0822" x2="-735.6034" y2="451.057" gradientTransform="matrix(1 0 0 -1 0 921.1467)">
					<stop  offset="0" style="stop-color:#000000"/>
					<stop  offset="1" style="stop-color:#333333"/>
				</linearGradient>
				<path style="fill:url(#SVGID_00000055702776050695735760000004289348834612165020_);" d="M820,258.3l-830.5,830.5
					c-11.3,11.3-29.6,11.3-40.8,0l-830.5-830.5c-11.3-11.3-11.3-29.6,0-40.8l830.5-830.5c11.3-11.3,29.6-11.3,40.8,0L820,217.5
					C831.3,228.8,831.3,247.1,820,258.3z"/>
			</g>
		</g>
		<g>
			<defs>
				<rect id="SVGID_00000177474458692260962850000008782303856302160042_" y="-102.2" width="1926.5" height="1284.3"/>
			</defs>
			<clipPath id="SVGID_00000055703899304163937530000004939670321832915357_">
				<use xlink:href="#SVGID_00000177474458692260962850000008782303856302160042_"  style="overflow:visible;"/>
			</clipPath>
			<g style="clip-path:url(#SVGID_00000055703899304163937530000004939670321832915357_);">
				<g class="st2">
					
						<image style="overflow:visible;enable-background:new    ;" width="2906" height="2908" xlink:href="B39CA710.png"  transform="matrix(0.6165 0 0 0.6165 -1138.7255 -631.7067)">
					</image>
				</g>
				<path class="st3" d="M574.2,254.3l-820.5,820.5c-14.1,14.1-36.8,14.1-50.9,0l-820.5-820.5c-14.1-14.1-14.1-36.8,0-50.9
					l820.5-820.5c14.1-14.1,36.8-14.1,50.9,0l820.5,820.5C588.3,217.4,588.3,240.2,574.2,254.3z"/>
				
					<linearGradient id="SVGID_00000005985143212752841980000004775565942311382406_" gradientUnits="userSpaceOnUse" x1="447.3555" y1="932.5316" x2="-988.2577" y2="459.5065" gradientTransform="matrix(1 0 0 -1 0 921.1467)">
					<stop  offset="0" style="stop-color:#000000"/>
					<stop  offset="1" style="stop-color:#333333"/>
				</linearGradient>
				<path style="fill:url(#SVGID_00000005985143212752841980000004775565942311382406_);" d="M567.4,249.9l-830.5,830.5
					c-11.3,11.3-29.6,11.3-40.8,0l-830.5-830.5c-11.3-11.3-11.3-29.6,0-40.8L-304-621.5c11.3-11.3,29.6-11.3,40.8,0L567.4,209
					C578.7,220.3,578.7,238.6,567.4,249.9z"/>
			</g>
		</g>
	</g>
</g>
</svg>
